<?xml version="1.0" encoding="UTF-8" standalone="no"?>
<!-- Created with Inkscape (http://www.inkscape.org/) -->

<svg
   width="62.441536mm"
   height="2.6955397mm"
   viewBox="0 0 62.441536 2.6955397"
   version="1.1"
   id="svg1"
   xmlns:inkscape="http://www.inkscape.org/namespaces/inkscape"
   xmlns:sodipodi="http://sodipodi.sourceforge.net/DTD/sodipodi-0.dtd"
   xmlns="http://www.w3.org/2000/svg"
   xmlns:svg="http://www.w3.org/2000/svg">
  <sodipodi:namedview
     id="namedview1"
     pagecolor="#ffffff"
     bordercolor="#000000"
     borderopacity="0.25"
     inkscape:showpageshadow="2"
     inkscape:pageopacity="0.0"
     inkscape:pagecheckerboard="0"
     inkscape:deskcolor="#d1d1d1"
     inkscape:document-units="mm" />
  <defs
     id="defs1" />
  <g
     inkscape:label="Layer 1"
     inkscape:groupmode="layer"
     id="layer1"
     transform="translate(-51.738904,-76.208524)">
    <path fill="currentColor"
       style="font-size:3.175px;line-height:1.5;font-family:Elite;-inkscape-font-specification:Elite;text-align:justify;letter-spacing:0.291042px;word-spacing:0.0211667px;fill-rule:evenodd;stroke-width:0.353;stroke-miterlimit:3.8;stroke-dasharray:0.706001, 0.352999"
       d="m 53.348623,77.624573 q 0,0.36195 -0.206375,0.57785 -0.1778,0.18415 -0.4064,0.18415 -0.168275,0 -0.3175,-0.09842 -0.1143,-0.0762 -0.22225,-0.22225 v 0.631825 q 0,0.0381 0.03175,0.06985 0.03175,0.03175 0.09208,0.04762 l 0.20955,0.0095 v 0.07937 h -0.790575 v -0.08255 q 0.09525,-0.0127 0.155575,-0.04128 0.0635,-0.02857 0.0889,-0.06667 l 0.0032,-1.552575 q 0,-0.03175 -0.0032,-0.04445 -0.0032,-0.01588 -0.02222,-0.04127 -0.03493,-0.03175 -0.09842,-0.04763 -0.06033,-0.01905 -0.12065,-0.02857 v -0.07937 l 0.4572,-0.0508 v 0.346075 q 0.13335,-0.1651 0.254,-0.2413 0.123825,-0.0762 0.26035,-0.0762 0.3175,0 0.4953,0.27305 0.1397,0.212725 0.1397,0.454025 z m -0.238125,0.0635 q 0,-0.282575 -0.1016,-0.4572 -0.117475,-0.2032 -0.346075,-0.2032 -0.2413,0 -0.34925,0.142875 -0.10795,0.1397 -0.10795,0.492125 0,0.238125 0.12065,0.409575 0.13335,0.187325 0.346075,0.187325 0.22225,0 0.33655,-0.168275 0.1016,-0.149225 0.1016,-0.403225 z m 2.573862,0.549275 -0.06985,0.09525 q -0.0254,0.0127 -0.0508,0.02222 -0.09208,0.0381 -0.13335,0.0381 -0.10795,0 -0.1778,-0.07303 -0.02858,-0.03175 -0.1016,-0.155575 l -0.3302,0.19685 q -0.0381,0.02223 -0.117475,0.02858 -0.07937,0.0095 -0.17145,0.0095 -0.19685,0 -0.320675,-0.0889 -0.1397,-0.09842 -0.1397,-0.276225 0,-0.288925 0.346075,-0.403225 0.22225,-0.07303 0.59055,-0.07303 l 0.1651,0.0032 v -0.276225 q -0.04445,-0.136525 -0.1397,-0.20955 -0.09208,-0.0762 -0.187325,-0.08573 -0.09525,-0.0127 -0.155575,-0.0127 -0.07937,0 -0.136525,0.01905 -0.05398,0.01587 -0.12065,0.06985 0.0508,0.06985 0.0508,0.13335 0,0.07303 -0.04445,0.12065 -0.04445,0.04762 -0.09842,0.04762 -0.07937,0 -0.130175,-0.0508 -0.0508,-0.0508 -0.0508,-0.130175 0,-0.104775 0.117475,-0.187325 0.117475,-0.08255 0.238125,-0.08255 h 0.460375 q 0.155575,0 0.295275,0.136525 0.117475,0.1143 0.117475,0.2921 v 0.746125 q 0,0.04127 0.02222,0.09208 0.02222,0.0508 0.0635,0.06985 l 0.02858,0.0032 q 0.04445,0 0.0889,-0.0127 0.04445,-0.01587 0.06985,-0.0381 z m -0.504825,-0.581025 -0.59055,0.05715 q -0.07937,0.0064 -0.174625,0.09843 -0.09208,0.09207 -0.09208,0.18415 0,0.1397 0.09208,0.2159 0.09525,0.0762 0.2413,0.0762 0.1651,0 0.301625,-0.07938 0.1143,-0.06667 0.1397,-0.136525 l 0.0635,-0.168275 z m 2.697687,0.688975 -0.454025,0.02858 v -0.3937 q -0.180975,0.238125 -0.3048,0.320675 -0.1524,0.1016 -0.377825,0.1016 -0.180975,0 -0.301625,-0.130175 -0.09208,-0.09842 -0.09208,-0.15875 v -0.815975 q 0,-0.187325 -0.0889,-0.269875 -0.0635,-0.01905 -0.142875,-0.01905 h -0.02857 v -0.08255 q 0.123825,0 0.23495,-0.01588 0.1143,-0.01587 0.22225,-0.03175 v 1.114425 q 0,0.10795 0.09525,0.187325 0.09525,0.07937 0.225425,0.07937 0.13335,0 0.254,-0.07937 0.09208,-0.06033 0.1651,-0.155575 0.06985,-0.104775 0.104775,-0.212725 v -0.6223 q 0,-0.1016 -0.0635,-0.1397 -0.0635,-0.0381 -0.1905,-0.0381 v -0.08572 l 0.441325,-0.04762 v 1.27 q 0.0127,0.0254 0.02857,0.05397 0.01905,0.0254 0.04127,0.04445 0.06668,0.01588 0.09208,0.02223 0.02858,0.0032 0.0635,0.0032 l 0.0762,-0.0032 z m 1.170513,-0.09843 q 0,0.04763 -0.04445,0.09843 -0.04445,0.0508 -0.111125,0.0508 -0.05715,0 -0.10795,-0.0381 -0.06032,-0.04762 -0.06032,-0.1143 0,-0.06985 0.04762,-0.117475 0.0508,-0.0508 0.1143,-0.0508 0.07303,0 0.117475,0.04762 0.04445,0.04762 0.04445,0.123825 z m 2.853262,0.127 h -1.184275 v -0.08572 q 0.250825,0 0.307975,-0.0064 0.19685,-0.02222 0.19685,-0.17145 v -0.01588 -1.603375 q 0,-0.10795 -0.187325,-0.130175 -0.07937,-0.0095 -0.19685,-0.0095 h -0.0762 v -0.08572 l 0.676275,-0.0381 v 1.933575 q 0,0.0635 0.10795,0.09843 0.111125,0.03493 0.24765,0.03493 l 0.10795,-0.0063 z m 2.316687,-0.6985 q 0,0.31115 -0.180975,0.508 -0.193675,0.20955 -0.52705,0.20955 -0.3556,0 -0.55245,-0.212725 -0.193675,-0.2159 -0.193675,-0.555625 0,-0.3556 0.1905,-0.53975 0.1905,-0.18415 0.555625,-0.18415 0.36195,0 0.5334,0.19685 0.174625,0.193675 0.174625,0.57785 z m -0.244475,0 q 0,-0.276225 -0.1143,-0.460375 -0.127,-0.206375 -0.34925,-0.206375 -0.263525,0 -0.396875,0.187325 -0.1143,0.161925 -0.1143,0.428625 0,0.314325 0.142875,0.504825 0.14605,0.1905 0.3683,0.1905 0.180975,0 0.320675,-0.180975 0.142875,-0.180975 0.142875,-0.46355 z m 2.418287,-0.0508 q 0,0.36195 -0.206375,0.57785 -0.1778,0.18415 -0.4064,0.18415 -0.168275,0 -0.3175,-0.09842 -0.1143,-0.0762 -0.22225,-0.22225 v 0.631825 q 0,0.0381 0.03175,0.06985 0.03175,0.03175 0.09208,0.04762 l 0.20955,0.0095 v 0.07937 h -0.790575 v -0.08255 q 0.09525,-0.0127 0.155575,-0.04128 0.0635,-0.02857 0.0889,-0.06667 l 0.0032,-1.552575 q 0,-0.03175 -0.0032,-0.04445 -0.0032,-0.01588 -0.02223,-0.04127 -0.03493,-0.03175 -0.09842,-0.04763 -0.06033,-0.01905 -0.12065,-0.02857 v -0.07937 l 0.4572,-0.0508 v 0.346075 q 0.13335,-0.1651 0.254,-0.2413 0.123825,-0.0762 0.26035,-0.0762 0.3175,0 0.4953,0.27305 0.1397,0.212725 0.1397,0.454025 z m -0.238125,0.0635 q 0,-0.282575 -0.1016,-0.4572 -0.117475,-0.2032 -0.346075,-0.2032 -0.2413,0 -0.34925,0.142875 -0.10795,0.1397 -0.10795,0.492125 0,0.238125 0.12065,0.409575 0.13335,0.187325 0.346075,0.187325 0.22225,0 0.33655,-0.168275 0.1016,-0.149225 0.1016,-0.403225 z m 2.421462,-0.04445 h -1.196975 q 0,0.282575 0.136525,0.4572 0.136525,0.174625 0.390525,0.174625 0.17145,0 0.333375,-0.0635 0.104775,-0.04128 0.2413,-0.130175 l 0.0635,0.07303 q -0.12065,0.09843 -0.263525,0.161925 -0.18415,0.07937 -0.37465,0.07937 -0.2667,0 -0.48895,-0.149225 -0.307975,-0.206375 -0.307975,-0.60325 0,-0.288925 0.180975,-0.504825 0.2032,-0.244475 0.5334,-0.244475 0.3175,0 0.50165,0.1651 0.20955,0.187325 0.250825,0.5842 z m -0.276225,-0.09525 q 0,-0.31115 -0.168275,-0.45085 -0.12065,-0.1016 -0.301625,-0.1016 -0.206375,0 -0.3302,0.161925 -0.12065,0.161925 -0.12065,0.390525 z m 2.415112,0.422275 -0.02222,0.403225 h -1.39065 v -0.06985 L 70.3994,77.018143 H 69.739 q -0.09525,0 -0.17145,0.08255 -0.0762,0.08255 -0.09525,0.18415 h -0.09525 l 0.0095,-0.37465 h 1.28905 v 0.08255 l -1.0922,1.2827 h 0.619125 l 0.2159,-0.0381 q 0.09525,-0.04445 0.136525,-0.104775 0.03175,-0.04762 0.0635,-0.161925 z m 1.376888,0.276225 q 0,0.04763 -0.04445,0.09843 -0.04445,0.0508 -0.111125,0.0508 -0.05715,0 -0.10795,-0.0381 -0.06033,-0.04762 -0.06033,-0.1143 0,-0.06985 0.04763,-0.117475 0.0508,-0.0508 0.1143,-0.0508 0.07302,0 0.117475,0.04762 0.04445,0.04762 0.04445,0.123825 z m 2.996136,-0.5715 q 0,0.31115 -0.180975,0.508 -0.193675,0.20955 -0.52705,0.20955 -0.3556,0 -0.55245,-0.212725 -0.193675,-0.2159 -0.193675,-0.555625 0,-0.3556 0.1905,-0.53975 0.1905,-0.18415 0.555625,-0.18415 0.36195,0 0.5334,0.19685 0.174625,0.193675 0.174625,0.57785 z m -0.244475,0 q 0,-0.276225 -0.1143,-0.460375 -0.127,-0.206375 -0.34925,-0.206375 -0.263525,0 -0.396875,0.187325 -0.1143,0.161925 -0.1143,0.428625 0,0.314325 0.142875,0.504825 0.14605,0.1905 0.3683,0.1905 0.180975,0 0.320675,-0.180975 0.142875,-0.180975 0.142875,-0.46355 z m 2.275413,0.6985 h -1.184275 v -0.08572 q 0.250825,0 0.307975,-0.0064 0.19685,-0.02222 0.19685,-0.17145 v -0.01588 -1.603375 q 0,-0.10795 -0.187325,-0.130175 -0.07937,-0.0095 -0.19685,-0.0095 h -0.0762 v -0.08572 l 0.676275,-0.0381 v 1.933575 q 0,0.0635 0.10795,0.09843 0.111125,0.03493 0.24765,0.03493 l 0.10795,-0.0063 z m 1.726138,-2.0066 q 0,0.05715 -0.0635,0.104775 -0.04127,0.03175 -0.0889,0.03175 -0.06032,0 -0.111125,-0.04762 -0.04763,-0.0508 -0.04763,-0.09843 0,-0.05715 0.04445,-0.1016 0.04763,-0.04762 0.1143,-0.04762 0.155575,0 0.155575,0.123825 0,0.02223 -0.0032,0.03493 z m 0.447675,2.016125 H 78.11992 v -0.07937 l 0.3556,-0.0127 q 0.04445,0 0.07937,-0.02858 0.0381,-0.02858 0.05397,-0.06033 l 0.0032,-0.90805 q -0.0032,-0.06667 -0.0095,-0.09842 -0.01905,-0.1016 -0.05715,-0.123825 -0.07303,-0.01588 -0.15875,-0.0254 -0.08572,-0.0095 -0.225425,-0.0095 v -0.08255 l 0.669925,-0.04445 v 1.21285 q 0,0.06033 0.0381,0.117475 0.0381,0.05398 0.1016,0.05398 l 0.320675,0.0095 z m 2.497661,-1.36525 q -0.07303,0 -0.12065,0.02223 -0.04445,0.01905 -0.08572,0.0635 l -0.64135,1.285875 h -0.123825 l -0.59055,-1.2446 q -0.0032,-0.02223 -0.02858,-0.04763 -0.0095,-0.0095 -0.04762,-0.04445 -0.05398,-0.01587 -0.0889,-0.02222 -0.03175,-0.0095 -0.0762,-0.0095 v -0.08572 h 0.720725 v 0.08255 l -0.05397,-0.0032 q -0.07937,0 -0.10795,0.0095 -0.06668,0.02223 -0.0762,0.1016 l 0.479425,1.06045 0.422275,-0.879475 0.0254,-0.10795 q 0.0127,-0.04127 -0.01905,-0.0889 -0.02858,-0.0508 -0.08572,-0.07937 -0.01905,-0.0032 -0.0762,-0.0064 -0.05398,-0.0032 -0.0762,-0.0032 v -0.08572 h 0.650875 z m 2.002363,0.625475 h -1.196975 q 0,0.282575 0.136525,0.4572 0.136525,0.174625 0.390525,0.174625 0.17145,0 0.333375,-0.0635 0.104775,-0.04128 0.2413,-0.130175 l 0.0635,0.07303 q -0.12065,0.09843 -0.263525,0.161925 -0.18415,0.07937 -0.37465,0.07937 -0.2667,0 -0.48895,-0.149225 -0.307975,-0.206375 -0.307975,-0.60325 0,-0.288925 0.180975,-0.504825 0.2032,-0.244475 0.5334,-0.244475 0.3175,0 0.50165,0.1651 0.20955,0.187325 0.250825,0.5842 z m -0.276225,-0.09525 q 0,-0.31115 -0.168275,-0.45085 -0.12065,-0.1016 -0.301625,-0.1016 -0.206375,0 -0.3302,0.161925 -0.12065,0.161925 -0.12065,0.390525 z m 2.408761,-0.415925 q 0,0.08255 -0.0635,0.130175 -0.0635,0.04762 -0.155575,0.04762 -0.0381,0 -0.06668,-0.03493 -0.0254,-0.0381 -0.03493,-0.08255 l 0.0032,-0.130175 q -0.02223,-0.03175 -0.04762,-0.04762 -0.0254,-0.01905 -0.06668,-0.01905 -0.212725,0 -0.365125,0.20955 -0.117475,0.161925 -0.117475,0.254 v 0.669925 q 0.0254,0.07303 0.04127,0.09525 0.0381,0.05397 0.1397,0.05397 0.06668,0 0.14605,0.0063 0.08255,0.0032 0.174625,0.0064 v 0.08255 h -1.1303 v -0.06668 q 0.123825,-0.0127 0.193675,-0.01905 0.07303,-0.0064 0.123825,-0.01588 0.05398,-0.0127 0.08572,-0.06668 0.02223,-0.0381 0.02223,-0.09207 v -0.9017 q 0,-0.127 -0.09207,-0.180975 -0.0889,-0.0127 -0.12065,-0.01588 -0.03175,-0.0032 -0.08255,-0.0032 -0.02857,0 -0.05397,0 -0.0254,0 -0.06985,0.0063 v -0.08572 l 0.606425,-0.04445 v 0.381 q 0.123825,-0.2032 0.27305,-0.295275 0.130175,-0.07937 0.3048,-0.07937 0.1016,0 0.155575,0.01587 0.05398,0.0127 0.117475,0.06985 0.07937,0.06033 0.07937,0.1524 z m 2.262712,-0.0254 q 0,0.17145 -0.03175,0.28575 -0.03175,0.1143 -0.111125,0.257175 -0.05715,0.10795 -0.123825,0.174625 -0.104775,0.1016 -0.2286,0.1016 l -0.04762,-0.0032 q -0.09525,-0.0127 -0.14605,-0.09207 -0.0508,-0.08255 -0.0508,-0.1778 l -0.03493,-0.0032 q -0.03492,0.123825 -0.08572,0.193675 -0.0635,0.08572 -0.149225,0.08572 -0.136525,0 -0.2032,-0.17145 -0.04762,-0.123825 -0.04762,-0.2794 0,-0.193675 0.08572,-0.409575 0.123825,-0.31115 0.352425,-0.34925 0.07303,0.01905 0.111125,0.05398 0.0381,0.03493 0.0762,0.136525 l 0.04127,-0.15875 h 0.1397 q -0.08572,0.244475 -0.117475,0.415925 -0.03175,0.168275 -0.03175,0.409575 l -0.0063,0.07303 q 0,0.13335 0.0889,0.19685 l 0.02223,0.0032 q 0.1016,0 0.1905,-0.10795 0.06985,-0.08255 0.1143,-0.20955 0.04762,-0.127 0.06667,-0.23495 0.02223,-0.10795 0.02223,-0.254 0,-0.314325 -0.187325,-0.52705 -0.187325,-0.212725 -0.434975,-0.212725 -0.180975,0 -0.32385,0.08572 -0.1143,0.06985 -0.2286,0.212725 -0.136525,0.1651 -0.193675,0.3556 -0.05715,0.1905 -0.05715,0.46355 0,0.10795 0.02857,0.250825 0.03175,0.1397 0.09843,0.307975 0.06985,0.1651 0.225425,0.27305 0.155575,0.104775 0.371475,0.104775 0.1778,0 0.377825,-0.111125 0.2286,-0.127 0.365125,-0.339725 l -0.0095,0.111125 q -0.07303,0.127 -0.161925,0.2032 -0.07303,0.0635 -0.19685,0.127 -0.111125,0.0508 -0.219075,0.0762 -0.10795,0.02858 -0.187325,0.02858 -0.3429,0 -0.555625,-0.212725 -0.276225,-0.276225 -0.276225,-0.873125 0,-0.390525 0.193675,-0.714375 0.250825,-0.4191 0.70485,-0.4191 0.06032,0 0.09525,0.0063 0.0381,0.0032 0.127,0.0254 0.3048,0.08572 0.43815,0.320675 0.111125,0.19685 0.111125,0.5207 z m -0.669925,-0.0889 -0.0032,-0.0762 q 0,-0.05397 -0.03493,-0.09525 -0.03175,-0.04445 -0.08572,-0.04445 l -0.03493,0.0063 q -0.127,0.09207 -0.2032,0.33655 -0.0762,0.244475 -0.0762,0.508 0,0.0762 0.03175,0.1397 0.03175,0.06032 0.09842,0.06032 0.104775,0 0.206375,-0.295275 0.1016,-0.295275 0.1016,-0.53975 z m 2.796113,0.625475 H 89.11598 q 0,0.282575 0.136525,0.4572 0.136525,0.174625 0.390525,0.174625 0.17145,0 0.333375,-0.0635 0.104775,-0.04128 0.2413,-0.130175 l 0.0635,0.07303 q -0.12065,0.09843 -0.263525,0.161925 -0.18415,0.07937 -0.37465,0.07937 -0.2667,0 -0.48895,-0.149225 -0.307975,-0.206375 -0.307975,-0.60325 0,-0.288925 0.180975,-0.504825 0.2032,-0.244475 0.5334,-0.244475 0.3175,0 0.50165,0.1651 0.20955,0.187325 0.250825,0.5842 z m -0.276225,-0.09525 q 0,-0.31115 -0.168275,-0.45085 -0.12065,-0.1016 -0.301625,-0.1016 -0.206375,0 -0.3302,0.161925 -0.12065,0.161925 -0.12065,0.390525 z m 2.621488,0.809625 q -0.1143,0 -0.206375,0.0064 -0.0889,0.0032 -0.238125,0.01587 v -0.346075 q -0.1143,0.1905 -0.254,0.276225 -0.1397,0.08572 -0.295275,0.08572 -0.2413,0 -0.409575,-0.15875 -0.20955,-0.19685 -0.20955,-0.574675 0,-0.27305 0.155575,-0.498475 0.1778,-0.257175 0.454025,-0.257175 0.161925,0 0.295275,0.07937 0.13335,0.0762 0.24765,0.2667 v -0.6985 q 0,-0.04445 -0.0254,-0.09842 -0.0254,-0.05398 -0.05398,-0.06985 -0.08255,-0.0127 -0.136525,-0.01905 -0.0508,-0.0063 -0.1143,-0.0063 v -0.06985 l 0.536575,-0.03175 v 1.851025 l 0.0032,0.08255 q 0.04127,0.04445 0.1016,0.06033 0.0635,0.01587 0.149225,0.01587 z m -0.466725,-0.7366 q 0,-0.212725 -0.13335,-0.384175 -0.149225,-0.193675 -0.37465,-0.193675 -0.238125,0 -0.3429,0.19685 -0.07937,0.1524 -0.07937,0.422275 0,0.32385 0.1397,0.485775 0.117475,0.136525 0.307975,0.136525 0.2032,0 0.34925,-0.219075 0.13335,-0.200025 0.13335,-0.4445 z m 2.640538,0.7239 -0.454025,0.02858 v -0.3937 q -0.180975,0.238125 -0.3048,0.320675 -0.1524,0.1016 -0.377825,0.1016 -0.180975,0 -0.301625,-0.130175 -0.09207,-0.09842 -0.09207,-0.15875 v -0.815975 q 0,-0.187325 -0.0889,-0.269875 -0.0635,-0.01905 -0.142875,-0.01905 h -0.02858 v -0.08255 q 0.123825,0 0.23495,-0.01588 0.1143,-0.01587 0.22225,-0.03175 v 1.114425 q 0,0.10795 0.09525,0.187325 0.09525,0.07937 0.225425,0.07937 0.13335,0 0.254,-0.07937 0.09207,-0.06033 0.1651,-0.155575 0.06985,-0.104775 0.104775,-0.212725 v -0.6223 q 0,-0.1016 -0.0635,-0.1397 -0.0635,-0.0381 -0.1905,-0.0381 v -0.08572 l 0.441325,-0.04762 v 1.27 q 0.0127,0.0254 0.02858,0.05397 0.01905,0.0254 0.04127,0.04445 0.06668,0.01588 0.09207,0.02223 0.02858,0.0032 0.0635,0.0032 l 0.0762,-0.0032 z m 1.170509,-0.09843 q 0,0.04763 -0.04445,0.09843 -0.04445,0.0508 -0.111125,0.0508 -0.05715,0 -0.10795,-0.0381 -0.06032,-0.04762 -0.06032,-0.1143 0,-0.06985 0.04762,-0.117475 0.0508,-0.0508 0.1143,-0.0508 0.07303,0 0.117475,0.04762 0.04445,0.04762 0.04445,0.123825 z m 3.177113,0.09843 -0.454025,0.02858 v -0.3937 q -0.180975,0.238125 -0.3048,0.320675 -0.1524,0.1016 -0.377825,0.1016 -0.180975,0 -0.301625,-0.130175 -0.09207,-0.09842 -0.09207,-0.15875 v -0.815975 q 0,-0.187325 -0.0889,-0.269875 -0.0635,-0.01905 -0.142875,-0.01905 h -0.02858 v -0.08255 q 0.123825,0 0.23495,-0.01588 0.1143,-0.01587 0.22225,-0.03175 v 1.114425 q 0,0.10795 0.09525,0.187325 0.09525,0.07937 0.225425,0.07937 0.13335,0 0.254,-0.07937 0.09207,-0.06033 0.1651,-0.155575 0.06985,-0.104775 0.104775,-0.212725 v -0.6223 q 0,-0.1016 -0.0635,-0.1397 -0.0635,-0.0381 -0.1905,-0.0381 v -0.08572 l 0.441325,-0.04762 v 1.27 q 0.0127,0.0254 0.02858,0.05397 0.01905,0.0254 0.04127,0.04445 0.06668,0.01588 0.09207,0.02223 0.02858,0.0032 0.0635,0.0032 l 0.0762,-0.0032 z m 2.154767,0.02858 h -0.69215 v -0.0762 q 0.0127,0.0032 0.0349,0.0032 0.073,0 0.13335,-0.0508 0.0635,-0.05398 0.0635,-0.111125 v -0.784225 q 0,-0.104775 -0.10795,-0.20955 -0.0921,-0.0889 -0.2159,-0.0889 -0.21907,0 -0.37147,0.1778 -0.1397,0.161925 -0.1397,0.365125 v 0.5588 q 0,0.0508 0.0318,0.09208 0.0635,0.0508 0.14287,0.0508 0.0413,0 0.0667,-0.0063 v 0.07937 h -0.717554 v -0.07937 q 0.0508,0.0127 0.0889,0.0127 0.02857,0 0.04445,-0.0032 0.01587,-0.0063 0.0381,-0.0127 0.04762,-0.03493 0.06985,-0.08573 l 0.0032,-1.038225 q 0,-0.06668 -0.05398,-0.1143 -0.05397,-0.0508 -0.14605,-0.0508 l -0.04445,0.0063 0.0032,-0.07937 0.450854,-0.0381 v 0.3683 q 0.11748,-0.14605 0.25718,-0.23495 0.1778,-0.1143 0.36512,-0.1143 0.0921,0 0.1905,0.04763 0.0984,0.04445 0.15558,0.104775 0.0572,0.05715 0.0825,0.180975 0.0159,0.07937 0.0159,0.1905 v 0.574675 q 0,0.05715 0.0254,0.142875 0.0286,0.08572 0.0698,0.127 0.01,0.0032 0.0635,0.01588 0.0572,0.0095 0.0921,0.0127 z m 1.42133,-2.0066 q 0,0.05715 -0.0635,0.104775 -0.0413,0.03175 -0.0889,0.03175 -0.0603,0 -0.11112,-0.04762 -0.0476,-0.0508 -0.0476,-0.09843 0,-0.05715 0.0445,-0.1016 0.0476,-0.04762 0.1143,-0.04762 0.15558,0 0.15558,0.123825 0,0.02223 -0.003,0.03493 z m 0.44768,2.016125 h -1.17158 v -0.07937 l 0.3556,-0.0127 q 0.0444,0 0.0794,-0.02858 0.0381,-0.02858 0.054,-0.06033 l 0.003,-0.90805 q -0.003,-0.06667 -0.01,-0.09842 -0.019,-0.1016 -0.0571,-0.123825 -0.073,-0.01588 -0.15875,-0.0254 -0.0857,-0.0095 -0.22542,-0.0095 v -0.08255 l 0.66992,-0.04445 v 1.21285 q 0,0.06033 0.0381,0.117475 0.0381,0.05398 0.1016,0.05398 l 0.32068,0.0095 z m 2.48496,-1.4097 q 0,0.05397 -0.0254,0.07937 -0.0127,0 -0.0317,0 -0.0159,-0.0032 -0.0222,-0.0063 -0.0413,-0.03175 -0.0825,-0.08572 -0.0159,-0.01905 -0.0318,-0.03493 -0.0159,-0.01905 -0.0444,-0.01905 -0.0984,0 -0.21908,0.111125 0.10795,0.0635 0.1524,0.155575 0.0444,0.0889 0.0444,0.193675 0,0.22225 -0.19685,0.339725 -0.1778,0.104775 -0.46355,0.104775 -0.0318,0 -0.0699,-0.0063 -0.1143,-0.01905 -0.17145,-0.01905 -0.0635,0 -0.12065,0.0381 -0.0762,0.0508 -0.0762,0.123825 0,0.04127 0.01,0.06985 0.0127,0.0254 0.0381,0.06033 0.0381,0.0254 0.0889,0.04127 0.0508,0.0127 0.0825,0.0127 l 0.0254,-0.0032 0.68897,0.02858 q 0.10795,0 0.2159,0.07937 0.13018,0.09525 0.13018,0.2286 0,0.219075 -0.2667,0.333375 -0.2286,0.09843 -0.57785,0.09843 -0.31433,0 -0.49848,-0.0635 -0.24447,-0.08572 -0.24447,-0.276225 0,-0.06033 0.0444,-0.111125 0.0318,-0.0381 0.0826,-0.06985 0.054,-0.02858 0.1143,-0.0508 0.0603,-0.0254 0.17145,-0.04763 -0.1651,-0.05715 -0.22543,-0.09525 -0.0889,-0.05715 -0.0889,-0.136525 0,-0.09525 0.0889,-0.17145 0.073,-0.0635 0.23178,-0.117475 -0.1143,-0.0762 -0.1778,-0.1524 -0.0921,-0.111125 -0.0921,-0.231775 0,-0.244475 0.22225,-0.37465 0.1778,-0.104775 0.39053,-0.104775 0.11112,0 0.21272,0.02858 0.054,0.01587 0.17145,0.06667 0.0984,-0.09842 0.16193,-0.1397 0.0921,-0.06033 0.20637,-0.07937 0.0349,-0.0095 0.0572,0 0.0952,0.08255 0.0952,0.2032 z m -0.48577,0.390525 q 0,-0.1397 -0.0825,-0.2413 -0.11113,-0.136525 -0.32385,-0.136525 -0.127,0 -0.25083,0.0889 -0.1524,0.111125 -0.1524,0.276225 0,0.212725 0.14288,0.314325 0.10477,0.07303 0.24765,0.07303 l 0.0889,-0.0095 q 0.15875,-0.01905 0.24447,-0.10795 0.0857,-0.0889 0.0857,-0.257175 z m 0.20637,1.241425 q 0,-0.05715 -0.0159,-0.09525 -0.0127,-0.0381 -0.0571,-0.08572 l -0.12065,-0.04445 -0.68263,-0.03493 q -0.0953,0 -0.19367,0.0508 -0.127,0.06668 -0.127,0.174625 0,0.12065 0.1397,0.187325 0.1397,0.06668 0.31115,0.06668 l 0.127,0.0063 q 0.2413,0 0.41275,-0.0508 0.20637,-0.06032 0.20637,-0.174625 z m 2.29446,-0.962025 h -1.19697 q 0,0.282575 0.13652,0.4572 0.13653,0.174625 0.39053,0.174625 0.17145,0 0.33337,-0.0635 0.10478,-0.04128 0.2413,-0.130175 l 0.0635,0.07303 q -0.12065,0.09843 -0.26352,0.161925 -0.18415,0.07937 -0.37465,0.07937 -0.2667,0 -0.48895,-0.149225 -0.30798,-0.206375 -0.30798,-0.60325 0,-0.288925 0.18098,-0.504825 0.2032,-0.244475 0.5334,-0.244475 0.3175,0 0.50165,0.1651 0.20955,0.187325 0.25082,0.5842 z m -0.27622,-0.09525 q 0,-0.31115 -0.16828,-0.45085 -0.12065,-0.1016 -0.30162,-0.1016 -0.20638,0 -0.3302,0.161925 -0.12065,0.161925 -0.12065,0.390525 z m 1.61818,0.6985 q 0,0.04763 -0.0444,0.09843 -0.0445,0.0508 -0.11112,0.0508 -0.0572,0 -0.10795,-0.0381 -0.0603,-0.04762 -0.0603,-0.1143 0,-0.06985 0.0476,-0.117475 0.0508,-0.0508 0.1143,-0.0508 0.073,0 0.11747,0.04762 0.0444,0.04762 0.0444,0.123825 z m 2.40559,-1.8796 q 0,0.05715 -0.0635,0.104775 -0.0413,0.03175 -0.0889,0.03175 -0.0603,0 -0.11112,-0.04762 -0.0476,-0.0508 -0.0476,-0.09843 0,-0.05715 0.0444,-0.1016 0.0476,-0.04762 0.1143,-0.04762 0.15558,0 0.15558,0.123825 0,0.02223 -0.003,0.03493 z m 0.44768,2.016125 h -1.17158 v -0.07937 l 0.3556,-0.0127 q 0.0444,0 0.0794,-0.02858 0.0381,-0.02858 0.054,-0.06033 l 0.003,-0.90805 q -0.003,-0.06667 -0.01,-0.09842 -0.019,-0.1016 -0.0571,-0.123825 -0.073,-0.01588 -0.15875,-0.0254 -0.0857,-0.0095 -0.22542,-0.0095 v -0.08255 l 0.66992,-0.04445 v 1.21285 q 0,0.06033 0.0381,0.117475 0.0381,0.05398 0.1016,0.05398 l 0.32068,0.0095 z m 2.28176,-0.428625 q -0.0413,0.212725 -0.18098,0.333375 -0.13652,0.117475 -0.35242,0.117475 -0.19368,0 -0.33973,-0.117475 -0.14605,-0.117475 -0.14605,-0.24765 v -1.00965 h -0.4191 v -0.0889 q 0.21273,-0.03175 0.30798,-0.0889 0.0953,-0.05715 0.14287,-0.1778 0.0254,-0.0635 0.0413,-0.127 0.006,-0.02223 0.0381,-0.212725 h 0.1016 v 0.59055 h 0.53657 v 0.10795 h -0.53657 v 0.936625 q 0,0.28575 0.32385,0.28575 0.13335,0 0.23812,-0.0762 0.11748,-0.08573 0.13653,-0.225425 z"
       id="text1"
       aria-label="pau.lopez.oliver@edu.unige.it" />
  </g>
</svg>
