<svg xmlns="http://www.w3.org/2000/svg" viewBox="0 0 32 32" preserveAspectRatio="xMidYMid meet" shape-rendering="crispEdges">
  <rect x="20" y="2" width="2" height="2" fill="#e0efef"/>
  <rect x="22" y="2" width="2" height="2" fill="#e0efef"/>
  <rect x="24" y="2" width="2" height="2" fill="#adbcbc"/>
  <rect x="26" y="2" width="2" height="2" fill="#adbcbc"/>
  <rect x="18" y="4" width="2" height="2" fill="#e0efef"/>
  <rect x="20" y="4" width="2" height="2" fill="#e0efef"/>
  <rect x="22" y="4" width="2" height="2" fill="#e0efef"/>
  <rect x="24" y="4" width="2" height="2" fill="#e0efef"/>
  <rect x="26" y="4" width="2" height="2" fill="#adbcbc"/>
  <rect x="28" y="4" width="2" height="2" fill="#adbcbc"/>
  <rect x="18" y="6" width="2" height="2" fill="#e0efef"/>
  <rect x="20" y="6" width="2" height="2" fill="#e0efef"/>
  <rect x="22" y="6" width="2" height="2" fill="#8d9b9f"/>
  <rect x="24" y="6" width="2" height="2" fill="#8d9b9f"/>
  <rect x="26" y="6" width="2" height="2" fill="#8d9b9f"/>
  <rect x="28" y="6" width="2" height="2" fill="#adbcbc"/>
  <rect x="14" y="8" width="2" height="2" fill="#6a6152"/>
  <rect x="16" y="8" width="2" height="2" fill="#c4d6d6"/>
  <rect x="18" y="8" width="2" height="2" fill="#e0efef"/>
  <rect x="20" y="8" width="2" height="2" fill="#8d9b9f"/>
  <rect x="26" y="8" width="2" height="2" fill="#5a8499"/>
  <rect x="28" y="8" width="2" height="2" fill="#8d9b9f"/>
  <rect x="12" y="10" width="2" height="2" fill="#6a6152"/>
  <rect x="14" y="10" width="2" height="2" fill="#ceac6d"/>
  <rect x="16" y="10" width="2" height="2" fill="#adbcbc"/>
  <rect x="18" y="10" width="2" height="2" fill="#c4d6d6"/>
  <rect x="20" y="10" width="2" height="2" fill="#5c4417"/>
  <rect x="26" y="10" width="2" height="2" fill="#5a8499"/>
  <rect x="28" y="10" width="2" height="2" fill="#8d9b9f"/>
  <rect x="10" y="12" width="2" height="2" fill="#6a6152"/>
  <rect x="12" y="12" width="2" height="2" fill="#ceac6d"/>
  <rect x="14" y="12" width="2" height="2" fill="#e6c78c"/>
  <rect x="16" y="12" width="2" height="2" fill="#adbcbc"/>
  <rect x="18" y="12" width="2" height="2" fill="#adbcbc"/>
  <rect x="20" y="12" width="2" height="2" fill="#ceac6d"/>
  <rect x="22" y="12" width="2" height="2" fill="#5c4417"/>
  <rect x="26" y="12" width="2" height="2" fill="#8d9b9f"/>
  <rect x="28" y="12" width="2" height="2" fill="#5a8499"/>
  <rect x="8" y="14" width="2" height="2" fill="#6a6152"/>
  <rect x="10" y="14" width="2" height="2" fill="#e6c78c"/>
  <rect x="12" y="14" width="2" height="2" fill="#e6c78c"/>
  <rect x="14" y="14" width="2" height="2" fill="#7a6f60"/>
  <rect x="16" y="14" width="2" height="2" fill="#8d9b9f"/>
  <rect x="18" y="14" width="2" height="2" fill="#adbcbc"/>
  <rect x="20" y="14" width="2" height="2" fill="#ceac6d"/>
  <rect x="22" y="14" width="2" height="2" fill="#5c4417"/>
  <rect x="24" y="14" width="2" height="2" fill="#8d9b9f"/>
  <rect x="26" y="14" width="2" height="2" fill="#5a8499"/>
  <rect x="6" y="16" width="2" height="2" fill="#6a6152"/>
  <rect x="8" y="16" width="2" height="2" fill="#e6c78c"/>
  <rect x="10" y="16" width="2" height="2" fill="#e6c78c"/>
  <rect x="12" y="16" width="2" height="2" fill="#7a6f60"/>
  <rect x="14" y="16" width="2" height="2" fill="#7a7162"/>
  <rect x="16" y="16" width="2" height="2" fill="#7a6f60"/>
  <rect x="18" y="16" width="2" height="2" fill="#ceac6d"/>
  <rect x="20" y="16" width="2" height="2" fill="#ceac6d"/>
  <rect x="22" y="16" width="2" height="2" fill="#5c4417"/>
  <rect x="24" y="16" width="2" height="2" fill="#5a8499"/>
  <rect x="4" y="18" width="2" height="2" fill="#6a6152"/>
  <rect x="6" y="18" width="2" height="2" fill="#e6c78c"/>
  <rect x="8" y="18" width="2" height="2" fill="#e6c78c"/>
  <rect x="10" y="18" width="2" height="2" fill="#e6c78c"/>
  <rect x="12" y="18" width="2" height="2" fill="#e6c78c"/>
  <rect x="14" y="18" width="2" height="2" fill="#7a6f60"/>
  <rect x="16" y="18" width="2" height="2" fill="#e6c78c"/>
  <rect x="18" y="18" width="2" height="2" fill="#ceac6d"/>
  <rect x="20" y="18" width="2" height="2" fill="#5c4417"/>
  <rect x="2" y="20" width="2" height="2" fill="#6a6152"/>
  <rect x="4" y="20" width="2" height="2" fill="#e6c78c"/>
  <rect x="6" y="20" width="2" height="2" fill="#7a6f60"/>
  <rect x="8" y="20" width="2" height="2" fill="#e6c78c"/>
  <rect x="10" y="20" width="2" height="2" fill="#7a6f60"/>
  <rect x="12" y="20" width="2" height="2" fill="#e6c78c"/>
  <rect x="14" y="20" width="2" height="2" fill="#e6c78c"/>
  <rect x="16" y="20" width="2" height="2" fill="#ceac6d"/>
  <rect x="18" y="20" width="2" height="2" fill="#5c4417"/>
  <rect x="0" y="22" width="2" height="2" fill="#6a6152"/>
  <rect x="2" y="22" width="2" height="2" fill="#ceac6d"/>
  <rect x="4" y="22" width="2" height="2" fill="#e6c78c"/>
  <rect x="6" y="22" width="2" height="2" fill="#e6c78c"/>
  <rect x="8" y="22" width="2" height="2" fill="#7a6f60"/>
  <rect x="10" y="22" width="2" height="2" fill="#7a7162"/>
  <rect x="12" y="22" width="2" height="2" fill="#e6c78c"/>
  <rect x="14" y="22" width="2" height="2" fill="#ceac6d"/>
  <rect x="16" y="22" width="2" height="2" fill="#5c4417"/>
  <rect x="0" y="24" width="2" height="2" fill="#6a6152"/>
  <rect x="2" y="24" width="2" height="2" fill="#e6c78c"/>
  <rect x="4" y="24" width="2" height="2" fill="#7a6f60"/>
  <rect x="6" y="24" width="2" height="2" fill="#e6c78c"/>
  <rect x="8" y="24" width="2" height="2" fill="#e6c78c"/>
  <rect x="10" y="24" width="2" height="2" fill="#e6c78c"/>
  <rect x="12" y="24" width="2" height="2" fill="#ceac6d"/>
  <rect x="14" y="24" width="2" height="2" fill="#5c4417"/>
  <rect x="0" y="26" width="2" height="2" fill="#6a6152"/>
  <rect x="2" y="26" width="2" height="2" fill="#ceac6d"/>
  <rect x="4" y="26" width="2" height="2" fill="#e6c78c"/>
  <rect x="6" y="26" width="2" height="2" fill="#7a6f60"/>
  <rect x="8" y="26" width="2" height="2" fill="#e6c78c"/>
  <rect x="10" y="26" width="2" height="2" fill="#ceac6d"/>
  <rect x="12" y="26" width="2" height="2" fill="#5c4417"/>
  <rect x="2" y="28" width="2" height="2" fill="#6a6152"/>
  <rect x="4" y="28" width="2" height="2" fill="#ceac6d"/>
  <rect x="6" y="28" width="2" height="2" fill="#7a7162"/>
  <rect x="8" y="28" width="2" height="2" fill="#ceac6d"/>
  <rect x="10" y="28" width="2" height="2" fill="#5c4417"/>
  <rect x="4" y="30" width="2" height="2" fill="#5c4417"/>
  <rect x="6" y="30" width="2" height="2" fill="#5c4417"/>
  <rect x="8" y="30" width="2" height="2" fill="#5c4417"/>
</svg>
