<svg xmlns="http://www.w3.org/2000/svg" viewBox="0 0 72 72" fill="none">
  <path d="M72 36c0 19.884-16.116 36-36 36S0 55.884 0 36 16.116 0 36 0s36 16.116 36 36z" fill="#A6CE39"/>
  <path d="M24.527 52.035h-4.342V22.054h4.342v30z" fill="#fff"/>
  <path d="M30.9 22.054h11.728c11.165 0 16.071 7.922 16.071 15.005 0 7.698-6.062 15.004-16.014 15.004H30.9V22.054zm4.342 26.117h6.908c9.84 0 12.095-7.418 12.095-11.113 0-6.019-3.862-11.113-12.32-11.113H35.24v26.226z" fill="#fff"/>
  <path d="M24.527 15.812c0 1.54-1.269 2.827-2.848 2.827s-2.847-1.288-2.847-2.827c0-1.568 1.268-2.828 2.847-2.828s2.848 1.288 2.848 2.828z" fill="#fff"/>
</svg>
