<?xml version="1.0" encoding="UTF-8" standalone="no"?>
<!-- Created with Inkscape (http://www.inkscape.org/) -->

<svg
   width="2.5874388mm"
   height="1.1521099mm"
   viewBox="0 0 2.5874388 1.1521099"
   version="1.1"
   id="svg1"
   xmlns:inkscape="http://www.inkscape.org/namespaces/inkscape"
   xmlns:sodipodi="http://sodipodi.sourceforge.net/DTD/sodipodi-0.dtd"
   xmlns="http://www.w3.org/2000/svg"
   xmlns:svg="http://www.w3.org/2000/svg">
  <sodipodi:namedview
     id="namedview1"
     pagecolor="#ffffff"
     bordercolor="#000000"
     borderopacity="0.25"
     inkscape:showpageshadow="2"
     inkscape:pageopacity="0.0"
     inkscape:pagecheckerboard="0"
     inkscape:deskcolor="#d1d1d1"
     inkscape:document-units="mm" />
  <defs
     id="defs1" />
  <g
     inkscape:label="Layer 1"
     inkscape:groupmode="layer"
     id="layer1"
     transform="translate(-80.672602,-100.25126)">
    <path
       style="font-size:3.175px;line-height:1.5;font-family:'CMU Serif';-inkscape-font-specification:'CMU Serif';text-align:justify;letter-spacing:0.291042px;word-spacing:0.0211667px;fill-rule:evenodd;stroke-width:0.353;stroke-miterlimit:3.8;stroke-dasharray:0.706001, 0.352999"
       d="m 81.136128,100.47916 q 0.01395,-0.006 0.04806,-0.0248 0.09922,-0.0543 0.218592,-0.0961 0.120922,-0.0419 0.37052,-0.0744 0.249597,-0.0326 0.641821,-0.0326 0.09147,0 0.336413,0.0155 0.244947,0.0155 0.296106,0.0202 0.05271,0.003 0.10232,0.0326 0.05116,0.0279 0.08062,0.0636 0.02946,0.0357 0.02946,0.0682 0,0.0589 -0.03566,0.10232 -0.03566,0.0434 -0.100769,0.0651 -0.06356,0.0217 -0.15503,0.0233 l -0.308508,0.009 -0.0062,0.0217 q 0.02481,0.0589 0.02481,0.0946 0,0.0434 -0.04031,0.10232 -0.03876,0.0574 -0.06046,0.062 -0.02015,0.005 -0.06821,0.0233 -0.04651,0.0171 -0.05581,0.0326 0.0155,0.062 0.0155,0.0853 0,0.045 -0.02481,0.0822 -0.0248,0.0357 -0.105419,0.0667 -0.04496,0.0171 -0.05116,0.0295 0,0.0884 -0.05426,0.11937 -0.05271,0.0295 -0.116272,0.0295 -0.05891,0 -0.175183,-0.0248 -0.116272,-0.0264 -0.173633,-0.0264 -0.05426,0 -0.176734,0.0186 -0.131775,0.0202 -0.192236,0.0202 -0.147278,0 -0.320911,-0.0992 l -0.0248,0.0233 q -0.04186,0.0915 -0.272852,0.0915 -0.07441,0 -0.09147,-0.0698 -0.01705,-0.0713 -0.01705,-0.33952 0,-0.0651 0.0124,-0.17828 0.0078,-0.0636 0.01395,-0.17519 0.01085,-0.18758 0.03876,-0.23719 0.02791,-0.0512 0.147278,-0.0512 0.117822,0 0.153479,0.0186 0.03566,0.0186 0.05891,0.0698 0.01085,0.0217 0.03876,0.0387 z m 0.908472,-0.0853 q 0.10387,0.0434 0.220141,0.11472 0.08372,0.0496 0.119373,0.0496 0.04651,0 0.116272,-0.0155 0.03256,-0.006 0.04341,-0.006 0.0016,0 0.04806,0.008 0.04806,0.008 0.144178,0.008 0.07751,0 0.10852,-0.009 0.03256,-0.009 0.04031,-0.009 0.0078,0 0.03256,0.003 0.04496,0.006 0.06666,0.006 0.08217,0 0.136426,-0.0264 0.05426,-0.0263 0.05426,-0.062 0,-0.0543 -0.08682,-0.0713 -0.08682,-0.0186 -0.113171,-0.0186 l -0.06046,0.009 q -0.0186,0 -0.06511,-0.0124 -0.03411,-0.009 -0.03721,-0.009 h -0.05736 l -0.206189,0.009 -0.120923,-0.006 q -0.07906,-0.003 -0.21239,-0.003 -0.113171,0 -0.176733,0.0248 z m 0.176733,0.19378 q -0.119372,-0.0915 -0.261999,-0.14262 -0.141077,-0.0512 -0.248047,-0.0512 -0.122473,0 -0.325562,0.0651 -0.203088,0.0636 -0.254248,0.16588 -0.04961,0.10077 -0.04961,0.22634 0,0.2155 0.0031,0.28061 0.0031,0.0651 0.09302,0.11317 0.08992,0.0465 0.221692,0.0465 0.03721,0 0.351917,-0.0372 l 0.0031,-0.009 q 0,-0.0201 -0.05891,-0.0729 -0.04186,-0.0372 -0.04186,-0.0388 l -0.03566,-0.11782 q -0.02791,0.002 -0.100769,0.008 -0.10542,0.0109 -0.15968,0.0109 -0.10697,0 -0.10697,-0.0605 0,-0.0279 0.03411,-0.0279 0.02015,0 0.07752,0.006 0.07131,0.006 0.10387,0.006 0.172082,0 0.172082,-0.0403 0,-0.008 -0.01085,-0.0233 -0.0093,-0.0155 -0.0155,-0.0155 -0.05116,0 -0.128674,0.008 -0.07752,0.008 -0.128674,0.008 -0.02791,0 -0.08527,-0.0294 -0.05736,-0.0295 -0.05736,-0.0682 0,-0.014 0.0093,-0.0357 0.04806,0.003 0.147278,0.0279 0.120923,0.0295 0.186035,0.0295 0.133326,0 0.133326,-0.0605 0,-0.0403 -0.106971,-0.13023 l 0.0062,-0.0279 q 0.02326,-0.009 0.04031,-0.009 0.03876,0 0.06356,0.0248 0.06356,0.062 0.08992,0.0837 0.02791,0.0217 0.05736,0.0217 0.03721,0 0.03721,-0.0357 0,-0.031 -0.04031,-0.0791 0.0248,-0.0248 0.03721,-0.0248 0.02946,0 0.05116,0.0217 0.09302,0.0961 0.269751,0.12402 l 0.0155,-0.0263 z m -1.330151,-0.11162 v -0.0155 q -0.02015,-0.0233 -0.03721,-0.0233 -0.01705,0 -0.04031,0.0124 -0.0217,0.0109 -0.02945,0.0294 -0.0062,0.0186 -0.0062,0.0651 0,0.0263 -0.01705,0.13642 -0.03411,0.2372 -0.03411,0.36432 0,0.006 0.0031,0.0295 0.0031,0.0233 0.0031,0.0295 l 0.0155,0.0139 0.03566,-0.0233 v -0.10697 l 0.0124,-0.0202 0.0186,0.003 0.0031,0.0233 -0.0062,0.15503 0.0031,0.0326 0.0186,0.0279 q 0.03101,-0.0186 0.03101,-0.0496 0,-0.0109 -0.0031,-0.0387 -0.0078,-0.0651 -0.0078,-0.11783 0,-0.20309 0.0279,-0.42943 0.0093,-0.0744 0.0093,-0.0977 z m 0.117822,0.67903 v -0.32091 q 0,-0.0124 0.0093,-0.0605 0.0186,-0.10077 0.0186,-0.15813 0,-0.0264 -0.031,-0.0605 h -0.0217 q -0.03101,0.031 -0.04031,0.0496 -0.0078,0.0186 -0.01705,0.11162 l -0.02635,0.25115 v 0.20308 l 0.02325,0.0171 0.02481,-0.0295 v -0.0543 l 0.0186,-0.003 0.02946,0.0667 z m 1.42627,-0.43408 -0.0062,-0.0233 q -0.07596,-0.0636 -0.09302,-0.0636 h -0.02481 q -0.03876,0.0357 -0.03876,0.0574 0,0.0248 0.02791,0.0481 0.02791,0.0217 0.05736,0.0217 0.04961,0 0.07752,-0.0403 z m -0.296106,0.16433 q 0.05426,0.0248 0.139526,0.0248 0.139526,0 0.227893,-0.045 0.08992,-0.0465 0.08992,-0.11007 0,-0.0186 -0.01705,-0.062 -0.01705,-0.045 -0.06511,-0.0527 0.0186,0.0481 0.0186,0.0744 0,0.045 -0.06356,0.0822 -0.06201,0.0372 -0.148828,0.0372 -0.05891,0 -0.155029,-0.0248 z m -0.09767,-0.0372 q 0.03411,-0.0233 0.03411,-0.0418 0,-0.0233 -0.0248,-0.0434 -0.02481,-0.0202 -0.02946,-0.0202 h -0.0248 q -0.04496,0.0264 -0.04496,0.0481 0,0.0202 0.06046,0.0574 z m -0.114721,0.0558 q -0.04186,-0.0558 -0.08527,-0.0558 -0.02325,0 -0.04031,0.0155 -0.01705,0.0155 -0.01705,0.0372 0,0.031 0.0248,0.0574 0.02481,0.0264 0.05736,0.0264 0.06046,0 0.06046,-0.0806 z m 0.09147,0.0419 q -0.0155,0.0155 -0.0248,0.0357 l -0.02791,0.0589 q 0,0.0248 0.09147,0.0636 0.09147,0.0388 0.199988,0.0388 0.05271,0 0.08682,-0.0186 0.03411,-0.0186 0.03411,-0.0481 0,-0.0822 -0.10542,-0.0822 l -0.06976,-0.003 q -0.04186,0 -0.08062,-0.0124 z m -0.203088,0.15503 q -0.0031,-0.0465 -0.02946,-0.0636 -0.02481,-0.0186 -0.04341,-0.0186 h -0.0217 q -0.0186,0.0387 -0.0186,0.0418 v 0.006 q 0.02326,0.0403 0.05271,0.0574 l 0.02946,0.003 q 0.0093,0 0.02636,-0.0202 0.0031,-0.005 0.0047,-0.006 z m 0.37517,0.17208 -0.0031,-0.0279 q -0.03876,-0.0326 -0.08217,-0.0388 -0.06201,-0.009 -0.150378,-0.0636 -0.03721,-0.0217 -0.04651,-0.0217 -0.0155,0 -0.03876,0.0279 -0.0217,0.0279 -0.0217,0.0388 0,0.0279 0.08682,0.0775 0.08682,0.0496 0.164331,0.0496 0.04031,0 0.05581,-0.0139 z"
       id="text1"
       aria-label="☞" />
  </g>
</svg>
