<?xml version="1.0" encoding="UTF-8" standalone="no"?>
<!-- Created with Inkscape (http://www.inkscape.org/) -->

<svg
   width="53.386875mm"
   height="34.986012mm"
   viewBox="0 0 53.386875 34.986012"
   version="1.1"
   id="svg1"
   xml:space="preserve"
   inkscape:version="1.3 (0e150ed, 2023-07-21)"
   sodipodi:docname="hamilton_A.svg"
   xmlns:inkscape="http://www.inkscape.org/namespaces/inkscape"
   xmlns:sodipodi="http://sodipodi.sourceforge.net/DTD/sodipodi-0.dtd"
   xmlns="http://www.w3.org/2000/svg"
   xmlns:svg="http://www.w3.org/2000/svg"><sodipodi:namedview
     id="namedview1"
     pagecolor="#ffffff"
     bordercolor="#000000"
     borderopacity="0.25"
     inkscape:showpageshadow="2"
     inkscape:pageopacity="0.0"
     inkscape:pagecheckerboard="0"
     inkscape:deskcolor="#d1d1d1"
     inkscape:document-units="mm"
     inkscape:zoom="2.3589299"
     inkscape:cx="296.53276"
     inkscape:cy="562.54321"
     inkscape:window-width="1440"
     inkscape:window-height="847"
     inkscape:window-x="0"
     inkscape:window-y="25"
     inkscape:window-maximized="0"
     inkscape:current-layer="layer2-4" /><defs
     id="defs1"><inkscape:path-effect
       effect="bspline"
       id="path-effect12"
       is_visible="true"
       lpeversion="1.3"
       weight="33.333333"
       steps="2"
       helper_size="0"
       apply_no_weight="true"
       apply_with_weight="true"
       only_selected="false"
       uniform="false" /><inkscape:path-effect
       effect="bspline"
       id="path-effect11"
       is_visible="true"
       lpeversion="1.3"
       weight="33.333333"
       steps="2"
       helper_size="0"
       apply_no_weight="true"
       apply_with_weight="true"
       only_selected="false"
       uniform="false" /><inkscape:path-effect
       effect="bspline"
       id="path-effect10"
       is_visible="true"
       lpeversion="1.3"
       weight="33.333333"
       steps="2"
       helper_size="0"
       apply_no_weight="true"
       apply_with_weight="true"
       only_selected="false"
       uniform="false" /><inkscape:path-effect
       effect="bspline"
       id="path-effect9"
       is_visible="true"
       lpeversion="1.3"
       weight="33.333333"
       steps="2"
       helper_size="0"
       apply_no_weight="true"
       apply_with_weight="true"
       only_selected="false"
       uniform="false" /><inkscape:path-effect
       effect="bspline"
       id="path-effect8"
       is_visible="true"
       lpeversion="1.3"
       weight="33.333333"
       steps="2"
       helper_size="0"
       apply_no_weight="true"
       apply_with_weight="true"
       only_selected="false"
       uniform="false" /><inkscape:path-effect
       effect="bspline"
       id="path-effect2"
       is_visible="true"
       lpeversion="1.3"
       weight="33.333333"
       steps="2"
       helper_size="0"
       apply_no_weight="true"
       apply_with_weight="true"
       only_selected="false"
       uniform="false" /><inkscape:path-effect
       effect="bspline"
       id="path-effect8-1"
       is_visible="true"
       lpeversion="1.3"
       weight="33.333333"
       steps="2"
       helper_size="0"
       apply_no_weight="true"
       apply_with_weight="true"
       only_selected="false"
       uniform="false" /><inkscape:path-effect
       effect="bspline"
       id="path-effect9-8"
       is_visible="true"
       lpeversion="1.3"
       weight="33.333333"
       steps="2"
       helper_size="0"
       apply_no_weight="true"
       apply_with_weight="true"
       only_selected="false"
       uniform="false" /><inkscape:path-effect
       effect="bspline"
       id="path-effect10-7"
       is_visible="true"
       lpeversion="1.3"
       weight="33.333333"
       steps="2"
       helper_size="0"
       apply_no_weight="true"
       apply_with_weight="true"
       only_selected="false"
       uniform="false" /><inkscape:path-effect
       effect="bspline"
       id="path-effect11-8"
       is_visible="true"
       lpeversion="1.3"
       weight="33.333333"
       steps="2"
       helper_size="0"
       apply_no_weight="true"
       apply_with_weight="true"
       only_selected="false"
       uniform="false" /><inkscape:path-effect
       effect="bspline"
       id="path-effect12-7"
       is_visible="true"
       lpeversion="1.3"
       weight="33.333333"
       steps="2"
       helper_size="0"
       apply_no_weight="true"
       apply_with_weight="true"
       only_selected="false"
       uniform="false" /></defs><g
     inkscape:label="Layer 1"
     inkscape:groupmode="layer"
     id="layer1"
     transform="translate(-55.958497,-133.01098)"><g
       inkscape:groupmode="layer"
       id="layer2"
       inkscape:label="Layer 2"><path
         style="fill:#e5e5e5;fill-opacity:1;fill-rule:evenodd;stroke:#747474;stroke-width:0;stroke-miterlimit:3.7;stroke-dasharray:none;stroke-opacity:1"
         d="m 231.44202,574.81741 c -4.67068,-0.15628 -9.61868,0.83564 -13.37772,3.7418 -3.62076,3.09728 -4.66216,8.09607 -5.30922,12.58984 -0.46565,5.48263 -0.4302,11.60328 3.13974,16.14583 3.1656,4.24041 8.76753,5.85293 13.8631,5.25333 8.29255,-0.73102 16.06688,-4.28749 23.16894,-8.44929 3.32208,-2.13599 6.67871,-4.34875 9.5066,-7.1136 -0.0931,-1.34729 -1.2908,-2.50096 -1.87531,-3.72072 -5.16775,-8.25778 -12.76031,-15.81821 -22.57239,-17.96378 -2.14197,-0.50657 -4.35684,-0.48725 -6.54374,-0.48341 z"
         id="path7"
         inkscape:label="path7"
         transform="scale(0.26458333)"
         inkscape:export-filename="hamilton_A.pdf"
         inkscape:export-xdpi="96"
         inkscape:export-ydpi="96" /><path
         style="fill:none;fill-opacity:1;fill-rule:evenodd;stroke:#93af4b;stroke-width:0.25;stroke-miterlimit:3.7;stroke-dasharray:1, 0.25;stroke-dashoffset:0;stroke-opacity:1"
         d="m 73.439216,162.77658 c 1.912641,-0.62221 3.825262,-1.24441 5.886051,-1.48158 2.060788,-0.23717 4.269697,-0.0893 7.419409,0.75425 3.149712,0.84354 7.240036,2.38272 11.33042,3.92192"
         id="path8"
         inkscape:path-effect="#path-effect8"
         inkscape:original-d="m 73.439216,162.77658 c 1.912641,-0.62221 3.825263,-1.24441 5.737895,-1.86662 2.208944,0.14787 4.417853,0.29574 6.626831,0.44361 4.090447,1.53922 8.18077,3.0784 12.271154,4.6176"
         sodipodi:nodetypes="cccc" /><path
         style="fill:none;fill-opacity:1;fill-rule:evenodd;stroke:#93af4b;stroke-width:0.25;stroke-miterlimit:3.7;stroke-dasharray:1, 0.25;stroke-dashoffset:0;stroke-opacity:1"
         d="m 69.165471,156.99708 c 2.718007,-1.45704 5.435992,-2.91407 9.403405,-3.14535 3.967414,-0.23128 9.184174,0.76318 13.744391,2.33033 4.560217,1.56716 8.463593,3.7069 12.367033,5.84668"
         id="path9"
         inkscape:path-effect="#path-effect9"
         inkscape:original-d="m 69.165471,156.99708 c 2.718009,-1.45704 5.435994,-2.91407 8.153985,-4.37111 5.216833,0.99448 10.433593,1.98894 15.650519,2.98343 3.903507,2.13982 7.806885,4.27956 11.710325,6.41934"
         sodipodi:nodetypes="cccc" /><path
         style="fill:none;fill-opacity:1;fill-rule:evenodd;stroke:#93af4b;stroke-width:0.25;stroke-miterlimit:3.7;stroke-dasharray:1, 0.25;stroke-dashoffset:0;stroke-opacity:1"
         d="m 63.62022,152.27695 c 4.09536,-2.44696 8.190641,-4.89386 13.617921,-5.44146 5.42728,-0.54759 12.185996,0.80416 17.657427,2.71264 5.471432,1.90849 9.655022,4.37355 13.838692,6.83865"
         id="path10"
         inkscape:path-effect="#path-effect10"
         inkscape:original-d="m 63.62022,152.27695 c 4.095363,-2.44695 8.190643,-4.89386 12.286085,-7.34087 6.759117,1.35182 13.517831,2.70357 20.276945,4.05539 4.18375,2.46515 8.36734,4.93021 12.55101,7.39531"
         sodipodi:nodetypes="cccc" /><path
         style="fill:none;fill-opacity:1;fill-rule:evenodd;stroke:#93af4b;stroke-width:0.25;stroke-miterlimit:3.7;stroke-dasharray:1, 0.25;stroke-dashoffset:0;stroke-opacity:1"
         d="m 58.546321,148.85513 c 4.075439,-3.13965 8.150794,-6.27923 14.064617,-7.58131 5.913824,-1.30208 13.665638,-0.76654 19.790699,0.70951 6.125061,1.47605 10.623023,3.89251 15.121083,6.30902"
         id="path11"
         inkscape:path-effect="#path-effect11"
         inkscape:original-d="m 58.546321,148.85513 c 4.075438,-3.13965 8.150794,-6.27923 12.226313,-9.41894 7.752128,0.53555 15.503942,1.07109 23.255916,1.60663 4.498147,2.41656 8.99611,4.83302 13.49417,7.24953"
         sodipodi:nodetypes="cccc" /><path
         style="fill:none;fill-opacity:1;fill-rule:evenodd;stroke:#93af4b;stroke-width:0.25;stroke-miterlimit:3.7;stroke-dasharray:1, 0.25;stroke-dashoffset:0;stroke-opacity:1"
         d="m 62.263102,142.53049 c 4.157957,-2.72632 8.315832,-5.45259 13.190308,-6.60705 4.874476,-1.15446 10.465162,-0.73703 14.400575,-0.0524 3.935413,0.68465 6.215354,1.63647 8.49534,2.58831"
         id="path12"
         inkscape:path-effect="#path-effect12"
         inkscape:original-d="m 62.263102,142.53049 c 4.157958,-2.72632 8.315833,-5.45259 12.473875,-8.17897 5.590909,0.41745 11.181595,0.83489 16.772388,1.25234 2.280033,0.95186 4.559974,1.90368 6.83996,2.85552"
         sodipodi:nodetypes="cccc" /></g><g
       inkscape:groupmode="layer"
       id="layer3"
       inkscape:label="Layer 3"><g
         inkscape:groupmode="layer"
         id="layer2-4"
         inkscape:label="Layer 2"
         transform="translate(0.0484644,-0.0799256)"><path
           style="fill:none;fill-opacity:1;fill-rule:evenodd;stroke:#177eb3;stroke-width:0.25;stroke-miterlimit:3.7;stroke-dasharray:none;stroke-opacity:1"
           d="m 73.439216,162.77658 c 1.821872,-1.4694 3.643723,-2.93878 5.765026,-3.10031 2.121302,-0.16152 4.542013,0.9848 6.32848,2.0956 1.786467,1.11081 2.938607,2.18604 4.923288,2.88 1.984682,0.69396 4.801872,1.00663 7.619086,1.3193"
           id="path8-9"
           inkscape:path-effect="#path-effect8-1"
           inkscape:original-d="m 73.439216,162.77658 c 1.821871,-1.4694 3.643723,-2.93878 5.465586,-4.40817 2.420741,1.14634 4.841453,2.29266 7.262219,3.43901 1.152167,1.07526 2.304309,2.15049 3.456465,3.22574 2.817206,0.31267 5.634396,0.62534 8.45161,0.93801"
           sodipodi:nodetypes="ccccc" /><path
           style="fill:none;fill-opacity:1;fill-rule:evenodd;stroke:#177eb3;stroke-width:0.25;stroke-miterlimit:3.7;stroke-dasharray:none;stroke-opacity:1"
           d="m 69.165471,156.99708 c 2.596979,-2.09243 5.19393,-4.18484 8.204082,-4.59861 3.010153,-0.41376 6.433452,0.85113 8.79982,2.37708 2.366368,1.52596 3.675781,3.31298 6.584803,4.56537 2.909022,1.25238 7.417554,1.9701 11.926124,2.68782"
           id="path9-1"
           inkscape:path-effect="#path-effect9-8"
           inkscape:original-d="m 69.165471,156.99708 c 2.596981,-2.09243 5.19393,-4.18484 7.790906,-6.27727 3.423329,1.2649 6.846628,2.52979 10.269958,3.79469 1.309406,1.78701 2.618819,3.57403 3.928247,5.36107 4.508616,0.71773 9.017148,1.43545 13.525718,2.15317"
           sodipodi:nodetypes="ccccc" /><path
           style="fill:none;fill-opacity:1;fill-rule:evenodd;stroke:#177eb3;stroke-width:0.25;stroke-miterlimit:3.7;stroke-dasharray:none;stroke-opacity:1"
           d="m 63.62022,152.27695 c 3.127153,-3.05209 6.25424,-6.10411 10.296041,-6.96208 4.041801,-0.85797 8.998031,0.47819 13.012871,2.42485 4.014839,1.94665 7.08828,4.50379 10.565639,6.04675 3.477359,1.54295 7.358389,2.07163 11.239489,2.60031"
           id="path10-5"
           inkscape:path-effect="#path-effect10-7"
           inkscape:original-d="m 63.62022,152.27695 c 3.127151,-3.05209 6.254241,-6.10411 9.381456,-9.15626 4.956385,1.33621 9.912617,2.67237 14.868853,4.00854 3.073443,2.55714 6.146885,5.11428 9.220418,7.6715 3.881183,0.52869 7.762213,1.05737 11.643313,1.58605"
           sodipodi:nodetypes="ccccc" /><path
           style="fill:none;fill-opacity:1;fill-rule:evenodd;stroke:#177eb3;stroke-width:0.25;stroke-miterlimit:3.7;stroke-dasharray:none;stroke-opacity:1"
           d="m 58.546321,148.85513 c 4.961795,-3.57284 9.923505,-7.14562 14.411522,-8.88271 4.488018,-1.7371 8.502052,-1.6384 13.09491,0.10601 4.592858,1.74441 9.764449,5.13451 13.439268,6.77778 3.674819,1.64328 5.852759,1.53967 8.030699,1.43607"
           id="path11-5"
           inkscape:path-effect="#path-effect11-8"
           inkscape:original-d="m 58.546321,148.85513 c 4.961794,-3.57284 9.923502,-7.14562 14.885377,-10.71851 4.014163,0.0987 8.028197,0.1974 12.042288,0.2961 5.171624,3.39012 10.343214,6.78022 15.514894,10.17037 2.17796,-0.10361 4.3559,-0.20721 6.53384,-0.31081"
           sodipodi:nodetypes="ccccc" /><path
           style="fill:none;fill-opacity:1;fill-rule:evenodd;stroke:#177eb3;stroke-width:0.25;stroke-miterlimit:3.7;stroke-dasharray:none;stroke-opacity:1"
           d="m 62.263102,142.53049 c 4.537307,-2.83629 9.074558,-5.67254 13.099682,-7.06628 4.025124,-1.39374 7.537901,-1.3449 10.385683,-0.46093 2.847782,0.88397 5.030487,2.60305 7.019794,3.31825 1.989308,0.71521 3.785183,0.42653 5.581064,0.13785"
           id="path12-5"
           inkscape:path-effect="#path-effect12-7"
           inkscape:original-d="m 62.263102,142.53049 c 4.537306,-2.83629 9.074559,-5.67254 13.611928,-8.50887 3.512879,0.0488 7.025655,0.0977 10.538496,0.14654 2.182723,1.71909 4.365426,3.43817 6.548153,5.15726 1.79589,-0.28868 3.591765,-0.57736 5.387646,-0.86604"
           sodipodi:nodetypes="ccccc" /><g
           inkscape:label=""
           transform="matrix(1.5219389,0,0,1.5219389,100.71201,143.87605)"
           id="g17"
           style="fill:#73893b;fill-opacity:1;stroke:none;stroke-width:0.999717;stroke-dasharray:none;stroke-opacity:1"><g
   fill="#000000"
   fill-opacity="1"
   id="g16"
   transform="matrix(0.352778,0,0,0.352778,-0.824353,-0.585391)"
   style="fill:#73893b;fill-opacity:1;stroke:none;stroke-width:2.83384;stroke-dasharray:none;stroke-opacity:1">&#10;    <g
   id="g15"
   transform="translate(1.993,8.8000002)"
   style="fill:#73893b;fill-opacity:1;stroke:none;stroke-width:2.83384;stroke-dasharray:none;stroke-opacity:1">&#10;      <path
   d="m 4.5184847,-16.834104 c -0.390625,0.65625 -0.78125,0.796875 -1.21875,0.828125 -0.125,0.01563 -0.21875,0.01563 -0.21875,0.203125 0,0.0625 0.0625,0.109375 0.140625,0.109375 0.265625,0 0.578125,-0.03125 0.84375,-0.03125 0.34375,0 0.6875,0.03125 1,0.03125 0.0625,0 0.1875,0 0.1875,-0.1875 0,-0.109375 -0.078125,-0.125 -0.15625,-0.125 -0.21875,-0.01563 -0.46875,-0.09375 -0.46875,-0.34375 0,-0.125 0.0625,-0.234375 0.140625,-0.375 l 0.765625,-1.265625 h 2.5 c 0.015625,0.203125 0.15625,1.5625 0.15625,1.65625 0,0.296875 -0.515625,0.328125 -0.71875,0.328125 -0.140625,0 -0.234375,0 -0.234375,0.203125 0,0.109375 0.109375,0.109375 0.140625,0.109375 0.40625,0 0.828125,-0.03125 1.234375,-0.03125 0.25,0 0.890625,0.03125 1.140625,0.03125 0.046875,0 0.171875,0 0.171875,-0.203125 0,-0.109375 -0.09375,-0.109375 -0.234375,-0.109375 -0.609375,0 -0.609375,-0.0625 -0.640625,-0.359375 l -0.609375,-6.21875 c -0.015625,-0.203125 -0.015625,-0.25 -0.1875,-0.25 -0.15625,0 -0.203125,0.07813 -0.265625,0.171875 z m 1.203125,-1.46875 1.953125,-3.296875 0.328125,3.296875 z m 0,0"
   id="path14"
   style="fill:#73893b;fill-opacity:1;stroke:none;stroke-width:2.83384;stroke-dasharray:none;stroke-opacity:1" />&#10;    </g>&#10;  </g>&#10;</g><g
           inkscape:label=""
           transform="matrix(1.3043677,0,0,1.3043677,56.183818,161.80703)"
           id="g20"
           style="fill:#177eb3;fill-opacity:1"
           inkscape:export-filename="hamilton_A.pdf"
           inkscape:export-xdpi="96"
           inkscape:export-ydpi="96"><g
   fill="#000000"
   fill-opacity="1"
   id="g4"
   transform="matrix(0.352778,0,0,0.352778,-0.05613814,0.45095181)"
   style="fill:#177eb3;fill-opacity:1">&#10;    <g
   id="use3"
   transform="translate(1.993,8.9110003)"
   style="fill:#177eb3;fill-opacity:1">&#10;      <path
   d="M 1.78125,-1.140625 C 1.390625,-0.484375 1,-0.34375 0.5625,-0.3125 0.4375,-0.296875 0.34375,-0.296875 0.34375,-0.109375 0.34375,-0.046875 0.40625,0 0.484375,0 0.75,0 1.0625,-0.03125 1.328125,-0.03125 c 0.34375,0 0.6875,0.03125 1,0.03125 0.0625,0 0.1875,0 0.1875,-0.1875 0,-0.109375 -0.078125,-0.125 -0.15625,-0.125 -0.21875,-0.015625 -0.46875,-0.09375 -0.46875,-0.34375 0,-0.125 0.0625,-0.234375 0.140625,-0.375 l 0.765625,-1.265625 h 2.5 c 0.015625,0.203125 0.15625,1.5625 0.15625,1.65625 0,0.296875 -0.515625,0.328125 -0.71875,0.328125 C 4.59375,-0.3125 4.5,-0.3125 4.5,-0.109375 4.5,0 4.609375,0 4.640625,0 5.046875,0 5.46875,-0.03125 5.875,-0.03125 6.125,-0.03125 6.765625,0 7.015625,0 7.0625,0 7.1875,0 7.1875,-0.203125 7.1875,-0.3125 7.09375,-0.3125 6.953125,-0.3125 6.34375,-0.3125 6.34375,-0.375 6.3125,-0.671875 l -0.609375,-6.21875 c -0.015625,-0.203125 -0.015625,-0.25 -0.1875,-0.25 -0.15625,0 -0.203125,0.078125 -0.265625,0.171875 z M 2.984375,-2.609375 4.9375,-5.90625 5.265625,-2.609375 Z m 0,0"
   id="path17"
   style="fill:#177eb3;fill-opacity:1" />&#10;    </g>&#10;  </g>&#10;  <g
   fill="#000000"
   fill-opacity="1"
   id="g5"
   transform="matrix(0.352778,0,0,0.352778,-0.05613814,0.45095181)"
   style="fill:#177eb3;fill-opacity:1">&#10;    <g
   id="use4"
   transform="translate(11.678,8.9110003)"
   style="fill:#177eb3;fill-opacity:1">&#10;      <path
   d="m 4.078125,-2.296875 h 2.78125 C 7,-2.296875 7.1875,-2.296875 7.1875,-2.5 7.1875,-2.6875 7,-2.6875 6.859375,-2.6875 h -2.78125 v -2.796875 c 0,-0.140625 0,-0.328125 -0.203125,-0.328125 -0.203125,0 -0.203125,0.1875 -0.203125,0.328125 V -2.6875 h -2.78125 c -0.140625,0 -0.328125,0 -0.328125,0.1875 0,0.203125 0.1875,0.203125 0.328125,0.203125 h 2.78125 V 0.5 c 0,0.140625 0,0.328125 0.203125,0.328125 0.203125,0 0.203125,-0.1875 0.203125,-0.328125 z m 0,0"
   id="path18"
   style="fill:#177eb3;fill-opacity:1" />&#10;    </g>&#10;  </g>&#10;  <g
   fill="#000000"
   fill-opacity="1"
   id="g6"
   transform="matrix(0.352778,0,0,0.352778,-0.05613814,0.45095181)"
   style="fill:#177eb3;fill-opacity:1">&#10;    <g
   id="use5"
   transform="translate(21.641001,8.9110003)"
   style="fill:#177eb3;fill-opacity:1">&#10;      <path
   d="M 2.625,-4.359375 C 1.390625,-4.0625 0.421875,-2.765625 0.421875,-1.5625 0.421875,-0.59375 1.0625,0.125 2,0.125 c 1.15625,0 1.984375,-1.578125 1.984375,-2.953125 0,-0.90625 -0.390625,-1.40625 -0.734375,-1.84375 C 2.890625,-5.125 2.296875,-5.875 2.296875,-6.3125 c 0,-0.21875 0.203125,-0.453125 0.546875,-0.453125 0.3125,0 0.5,0.125 0.71875,0.265625 0.203125,0.125 0.390625,0.25 0.546875,0.25 C 4.359375,-6.25 4.5,-6.484375 4.5,-6.65625 4.5,-6.875 4.34375,-6.890625 3.984375,-6.984375 3.46875,-7.09375 3.328125,-7.09375 3.171875,-7.09375 c -0.78125,0 -1.140625,0.4375 -1.140625,1.03125 0,0.546875 0.296875,1.09375 0.59375,1.703125 z m 0.125,0.21875 c 0.25,0.46875 0.546875,1 0.546875,1.71875 0,0.65625 -0.375,2.328125 -1.296875,2.328125 -0.546875,0 -0.96875,-0.421875 -0.96875,-1.1875 0,-0.625 0.375,-2.5 1.71875,-2.859375 z m 0,0"
   id="path19"
   style="fill:#177eb3;fill-opacity:1" />&#10;    </g>&#10;  </g>&#10;  <g
   fill="#000000"
   fill-opacity="1"
   id="g7"
   transform="matrix(0.352778,0,0,0.352778,-0.05613814,0.45095181)"
   style="fill:#177eb3;fill-opacity:1">&#10;    <g
   id="use6"
   transform="translate(26.446959,8.9110003)"
   style="fill:#177eb3;fill-opacity:1">&#10;      <path
   d="M 1.78125,-1.140625 C 1.390625,-0.484375 1,-0.34375 0.5625,-0.3125 0.4375,-0.296875 0.34375,-0.296875 0.34375,-0.109375 0.34375,-0.046875 0.40625,0 0.484375,0 0.75,0 1.0625,-0.03125 1.328125,-0.03125 c 0.34375,0 0.6875,0.03125 1,0.03125 0.0625,0 0.1875,0 0.1875,-0.1875 0,-0.109375 -0.078125,-0.125 -0.15625,-0.125 -0.21875,-0.015625 -0.46875,-0.09375 -0.46875,-0.34375 0,-0.125 0.0625,-0.234375 0.140625,-0.375 l 0.765625,-1.265625 h 2.5 c 0.015625,0.203125 0.15625,1.5625 0.15625,1.65625 0,0.296875 -0.515625,0.328125 -0.71875,0.328125 C 4.59375,-0.3125 4.5,-0.3125 4.5,-0.109375 4.5,0 4.609375,0 4.640625,0 5.046875,0 5.46875,-0.03125 5.875,-0.03125 6.125,-0.03125 6.765625,0 7.015625,0 7.0625,0 7.1875,0 7.1875,-0.203125 7.1875,-0.3125 7.09375,-0.3125 6.953125,-0.3125 6.34375,-0.3125 6.34375,-0.375 6.3125,-0.671875 l -0.609375,-6.21875 c -0.015625,-0.203125 -0.015625,-0.25 -0.1875,-0.25 -0.15625,0 -0.203125,0.078125 -0.265625,0.171875 z M 2.984375,-2.609375 4.9375,-5.90625 5.265625,-2.609375 Z m 0,0"
   id="path20"
   style="fill:#177eb3;fill-opacity:1" />&#10;    </g>&#10;  </g>&#10;</g><g
           inkscape:label=""
           transform="matrix(1.8172858,0,0,1.8172858,58.871564,135.55495)"
           id="g26"><g
   fill="#000000"
   fill-opacity="1"
   id="g25"
   transform="matrix(0.352778,0,0,0.352778,-0.620404,-0.701146)">&#10;    <g
   id="g24"
   transform="translate(1.993,8.8000002)">&#10;      <path
   d="m 3.53125,-6.8125 c -1.234375,0 -1.765625,0.234375 -2,0.328125 -1.015625,0.421875 -1.25,1.09375 -1.25,1.234375 0,0.0625 0.046875,0.078125 0.109375,0.078125 0.171875,0 0.65625,-0.25 0.734375,-0.46875 0.125,-0.375 0.15625,-0.46875 0.8125,-0.5625 0.34375,-0.03125 0.671875,-0.0625 1.015625,-0.0625 h 0.90625 c -0.625,0.609375 -0.921875,1.6875 -1.28125,3.109375 -0.28125,1.1875 -0.515625,1.953125 -0.921875,2.484375 -0.09375,0.109375 -0.109375,0.125 -0.375,0.125 H 0.640625 c -0.1875,0 -0.296875,0 -0.546875,0.140625 -0.109375,0.0625 -0.328125,0.234375 -0.328125,0.34375 0,0.046875 0,0.0625 0.21875,0.0625 H 3.40625 C 4.5625,0 5.4375,-0.875 5.4375,-1.21875 c 0,-0.078125 -0.078125,-0.078125 -0.109375,-0.078125 -0.171875,0 -0.640625,0.234375 -0.75,0.484375 -0.0625,0.203125 -0.09375,0.265625 -0.59375,0.265625 H 2.078125 C 2.796875,-1.15625 3.09375,-2.140625 3.421875,-3.5 3.703125,-4.578125 3.9375,-5.546875 4.34375,-6.15625 4.40625,-6.25 4.421875,-6.265625 4.609375,-6.265625 H 5.46875 c 0.1875,0 0.28125,0 0.546875,-0.140625 0.078125,-0.046875 0.3125,-0.21875 0.3125,-0.328125 0,-0.0625 -0.015625,-0.078125 -0.234375,-0.078125 z m 0,0"
   id="path23" />&#10;    </g>&#10;  </g>&#10;</g></g></g><path
       style="fill:none;fill-rule:evenodd;stroke:#000000;stroke-width:0.3;stroke-miterlimit:3.7;stroke-dasharray:none;stroke-opacity:1"
       d="m 56.156333,156.46644 c 0.208368,-1.1781 0.41673,-2.35617 1.123005,-3.15616 0.706276,-0.79999 1.910451,-1.22188 3.297256,-1.33866 1.386805,-0.11679 2.956206,0.0715 4.454434,0.89231 1.498227,0.82079 2.925195,2.274 4.04081,4.09689 1.115614,1.8229 1.888094,3.92887 4.853727,6.19671 2.965633,2.26784 7.587655,4.31491 12.93407,4.64439 5.346414,0.32949 10.852679,-1.16707 15.260435,-3.90232 4.40776,-2.73526 7.6176,-6.68199 6.99881,-11.30619 -0.61879,-4.6242 -5.06613,-9.92531 -9.851577,-13.56016 -4.785444,-3.63485 -9.908396,-5.603 -14.927928,-5.84604 -5.019533,-0.24303 -9.935137,1.23911 -13.713524,3.02794 -3.778387,1.78883 -6.419291,3.88418 -8.630036,6.73835 -2.210744,2.85417 -3.991091,6.46688 -4.980271,9.57661 -0.989179,3.10974 -1.187149,5.71634 -0.494227,7.38262 0.692922,1.66627 2.276674,2.39216 4.157439,2.29316 1.880765,-0.099 4.058425,-1.02285 5.590151,-1.85658 1.531727,-0.83374 2.417439,-1.57731 3.303169,-2.32089"
       id="path1"
       inkscape:path-effect="#path-effect2"
       inkscape:original-d="m 56.156333,156.46644 c 0.208368,-1.1781 0.41673,-2.35617 0.625096,-3.53426 1.204185,-0.42189 2.40836,-0.84378 3.612542,-1.26567 1.569428,0.18832 3.13883,0.37663 4.708277,0.56496 1.427007,1.45325 2.853975,2.90646 4.280963,4.35969 0.804239,2.19256 1.576721,4.29853 2.412669,6.57753 5.095319,2.25668 9.717339,4.30375 14.705838,6.51312 5.70433,-1.5504 11.210596,-3.04696 16.816072,-4.57049 3.21004,-3.94698 6.41988,-7.89371 9.62992,-11.84068 -4.44762,-5.30143 -8.89496,-10.60254 -13.342584,-15.90397 -5.123267,-1.96827 -10.246219,-3.93642 -15.369483,-5.90469 -4.915801,1.4822 -9.831405,2.96434 -14.747107,4.44651 -2.64107,2.09549 -5.281978,4.19084 -7.923048,6.28633 -1.780419,3.61285 -3.560763,7.22556 -5.341147,10.83834 -0.197977,2.60669 -0.395946,5.21329 -0.593918,7.81993 1.583814,0.72592 3.167568,1.4518 4.751353,2.1777 2.177746,-0.92389 4.355407,-1.84774 6.53311,-2.77162 0.885747,-0.7436 1.771458,-1.48717 2.65719,-2.23075"
       sodipodi:nodetypes="cccccccccccccccccc" /></g></svg>
